<svg width="68" height="28" viewBox="0 0 68 28" fill="none" xmlns="http://www.w3.org/2000/svg">
<path d="M34.2076 3.05544C34.6702 3.07697 35.112 3.25288 35.4619 3.55483C35.9387 4.00429 36.0638 4.75375 35.8381 5.35339C34.9607 7.15158 32.8741 8.35267 31.4483 8.75002C30.5953 8.94978 29.5169 8.94978 28.7391 8.65014C28.3626 8.87487 28.045 9.60116 27.5852 9.29935C26.9197 8.78186 27.4958 7.97197 27.1116 7.3973C27.0324 7.27897 26.8328 7.27028 26.7325 7.07667C26.2055 5.9277 26.8579 4.82866 27.5852 3.95472C28.7977 2.60779 32.2762 1.10706 34.2076 3.05544ZM30.169 3.95435C29.4915 4.0792 28.7264 4.37269 28.3128 4.85363C27.8988 5.33421 27.6357 5.80285 27.8865 6.30225C28.7646 5.65303 29.1909 4.75375 30.1693 4.20441C30.169 4.10417 30.3194 4.02926 30.169 3.95435ZM34.2581 4.20441C32.527 4.05423 31.2226 5.35339 29.9934 6.60189C29.9182 6.80164 29.4668 7.02637 29.8179 7.2511C31.4737 7.40092 33.054 6.92686 34.2581 5.82746C34.6096 5.50285 34.8596 5.07836 34.6848 4.62854C34.6096 4.45411 34.4326 4.27932 34.2581 4.20441ZM49.2581 11.6472C50.0609 13.5956 50.738 16.6673 49.2581 18.5407C48.8568 18.9902 48.1546 19.4046 47.7032 19.0651C46.0474 17.7417 45.3455 15.8433 44.317 14.1446C44.1665 14.0697 44.1665 14.2698 44.0913 14.3447C43.7151 16.068 44.4173 18.316 43.2386 19.6644C42.7872 19.7393 42.3649 19.5081 42.2101 19.0651C41.6329 17.2919 42.2344 15.4434 42.3849 13.6702C42.7363 12.7709 42.8868 11.7222 43.6646 11.0476C44.9188 11.547 45.5207 12.946 46.2476 13.9702C46.775 14.7442 47.201 15.6185 47.8028 16.3177C48.3295 16.093 48.0703 15.4076 48.054 14.9939C47.8526 13.3705 47.4012 11.872 46.9745 10.3235C46.9502 9.92397 46.7245 9.24942 47.1501 8.99972C48.2804 9.49948 48.7562 10.6731 49.2581 11.6472ZM41.6827 11.0476C41.6827 11.4225 41.3818 11.8908 41.1302 11.9469C38.7224 12.3214 36.0383 12.0967 33.7809 12.8458C33.7057 13.1205 34.0317 13.1704 34.2072 13.2453C36.1383 13.545 38.1707 13.6199 40.0523 14.0947C41.047 14.3462 41.4072 15.5187 41.4824 16.4925C41.5286 17.2604 41.232 18.1908 40.4789 18.7155C38.6232 19.8895 35.7886 19.8392 33.9067 18.7658C33.1874 18.3641 32.5019 17.7171 32.4518 16.9177C32.4561 16.283 32.728 15.7832 33.1794 15.544C34.9858 14.8195 37.2181 15.2198 38.7736 16.1433C38.8732 16.643 38.3302 16.6159 38.0704 16.7929C36.3392 17.792 35.0352 15.6696 33.4298 16.4429C33.2041 16.5927 33.0409 17.0107 33.3044 17.1424C35.286 18.0167 37.4936 17.3921 39.45 16.8428C39.6757 16.7679 39.9519 16.5432 39.9767 16.3184C39.9014 15.519 38.9986 15.3446 38.4214 15.1199C36.7158 14.6954 34.8346 14.6954 33.0031 14.5206C32.652 14.4457 32.2046 14.2021 32.1003 13.9213C31.8997 13.322 31.8997 12.4977 32.3511 11.9983C34.6837 9.95002 38.2205 10.1252 41.1804 10.6745C41.3814 10.748 41.6071 10.8229 41.6827 11.0476ZM30.721 11.9968C30.9467 14.3943 31.0721 16.6177 31.022 19.14C30.9718 19.4643 30.5956 19.5395 30.3449 19.6644C29.9436 19.7393 29.425 19.6543 29.2661 19.4397C28.6893 18.515 28.89 17.2669 28.8398 16.1429C28.9151 14.3701 28.89 12.4466 29.3919 10.7979C29.4879 10.5583 29.7681 10.3485 29.9938 10.4979C30.5956 10.7979 30.696 11.3975 30.721 11.9968ZM58.5904 11.6472C58.7111 11.8492 58.8372 12.1611 58.5904 12.2965C57.4615 12.7959 55.9317 12.5711 54.627 12.721C54.2759 13.0206 53.9996 13.52 54.1247 13.9698C54.2508 14.0447 54.3631 14.1587 54.5016 14.1442C55.3037 14.1945 56.5082 13.7697 57.0355 14.5188C57.1642 14.7417 57.0181 15.574 56.6594 15.5929C55.6806 15.7184 54.0712 15.4705 53.5984 15.7184C52.9965 16.1179 53.0463 16.892 52.8206 17.517C53.2473 17.7916 53.694 17.5105 54.1999 17.4417C55.1289 17.2919 56.1575 17.0172 57.085 17.217C57.2605 17.5416 57.5117 17.8915 57.3358 18.291C55.7544 19.5399 53.7147 20.8199 51.5416 19.9144C50.7261 19.5504 50.3626 18.316 50.6388 17.2676C50.814 16.5182 51.5914 15.7941 51.1153 14.9947C51.0401 14.6447 51.2411 14.3454 51.542 14.2705C52.3696 14.2705 52.1937 13.2464 52.6204 12.7716C52.1439 12.2472 50.9401 12.2722 51.0655 11.2231C51.6427 10.9235 52.3452 11.0234 52.9965 10.9235C54.4765 10.6235 56.132 10.4487 57.6381 10.6235C57.938 10.6836 58.3396 11.2727 58.5904 11.6472ZM22.7691 5.95267C25.0839 7.83663 28.0871 11.048 27.7109 14.7442C27.2592 17.6668 24.1488 19.8645 21.5148 20.564C18.9562 21.3131 15.7454 21.2382 13.1362 20.6389C12.9607 21.1137 12.7851 21.6877 12.2334 21.8878C11.8823 22.0126 11.4306 21.9377 11.1547 21.713C10.3773 20.9885 11.0042 19.5898 9.87536 19.1407C7.66776 18.2165 5.28462 16.393 4.15611 14.1453C4.00564 13.6959 4.18118 13.2464 4.45704 12.8968C6.18816 11.5231 8.37031 10.9738 10.5528 10.5489C10.6782 10.5989 10.6281 10.4241 10.7284 10.3741C10.8538 8.87559 10.9039 7.35171 11.3804 6.00297C11.4891 5.81371 11.7566 5.75327 11.9325 5.87812C13.3121 6.92686 12.6597 8.90056 13.262 10.3238C15.8959 10.4487 18.5298 10.5735 20.6117 12.0475C21.3142 12.6218 21.4854 13.7187 21.2637 14.3454C21.0424 14.9711 20.3107 15.4195 19.6333 15.4687C19.1815 15.4687 18.3288 15.5125 18.379 15.1694C18.4292 14.826 19.9135 14.264 19.4577 13.7954C18.8024 13.1219 15.5237 12.7213 13.4917 12.4716C13.2409 12.4217 13.0108 12.4966 13.0108 12.7713C12.9607 14.6693 12.8102 16.7672 13.1362 18.591C13.1613 18.7163 13.3118 18.8661 13.4375 18.8903C17.0244 19.465 20.8123 19.14 23.6218 17.0921C24.9262 16.0438 25.3529 14.5691 25.1268 12.946C23.9979 8.42541 19.2571 5.70261 15.3689 3.95435C11.5814 2.30598 7.3919 1.45664 2.90184 1.68173C2.18693 1.73384 1.05406 1.97956 1.0457 2.23143C1.03734 2.4833 2.32904 2.40405 2.17421 2.88065C2.01975 3.35688 0.706964 3.07425 0.318073 2.95556C-0.0708189 2.83686 -0.03302 2.28101 0.0672922 1.93143C1.0457 0.208147 3.77594 0.0688228 5.00912 0.00838843C11.8318 -0.166763 18.4295 2.42034 22.7691 5.95267ZM10.4776 12.6464C8.74648 12.6714 6.91542 12.8462 5.31006 13.4454C4.98405 13.5703 4.58243 13.9199 4.83321 14.3447C5.48524 15.2187 6.41785 15.9363 7.29159 16.4426C8.16532 16.9481 9.32364 17.5915 10.3773 17.7417C10.6281 16.1179 10.6281 14.5195 10.603 12.8462C10.5023 12.7962 10.6026 12.6963 10.4776 12.6464ZM62.3274 10.3734C62.2521 12.5462 60.2197 13.8953 60.2197 16.068C60.295 16.1429 60.3458 16.2428 60.4454 16.1936C62.0766 14.42 63.6816 11.8973 66.0647 11.1482C66.6928 11.0983 67.2601 11.6415 67.4949 12.0475C68.3229 13.6959 68.123 16.0188 66.9686 17.5173C65.7776 18.9884 63.707 20.4645 61.3501 20.2145C60.372 22.6123 59.6935 25.135 59.3173 27.7575C59.1167 28.2819 58.6405 27.8075 58.3396 27.7076C56.3079 26.1092 57.9761 21.8777 58.1139 21.3377C58.2516 20.7993 58.7954 19.529 59.193 18.4655C58.2397 16.7675 58.8415 14.7189 59.6189 13.1454C60.2208 12.0963 61.0495 11.0472 62.0275 10.2482C62.1518 10.2486 62.2521 10.2735 62.3274 10.3734ZM66.3668 13.0709C66.0658 13.021 65.9401 13.4208 65.6897 13.4957C64.5361 14.7945 63.3817 16.0933 62.8046 17.6418C63.5827 17.7417 64.2344 17.2423 64.9122 16.9676C66.0658 16.2432 66.7935 15.045 66.7182 13.6709C66.6677 13.4454 66.4671 13.2707 66.3668 13.0709Z" fill="white"/>
</svg>
