<svg width="20" height="20" viewBox="0 0 20 20" fill="none" xmlns="http://www.w3.org/2000/svg">
<path d="M9.99998 1.66667C10.4602 1.66667 10.8333 2.03976 10.8333 2.5V11.3215L12.7441 9.41074C13.0695 9.08531 13.5971 9.08531 13.9226 9.41074C14.248 9.73618 14.248 10.2638 13.9226 10.5893L10.5892 13.9226C10.2638 14.248 9.73616 14.248 9.41072 13.9226L6.07739 10.5893C5.75195 10.2638 5.75195 9.73618 6.07739 9.41074C6.40283 9.08531 6.93046 9.08531 7.2559 9.41074L9.16665 11.3215V2.5C9.16665 2.03976 9.53974 1.66667 9.99998 1.66667ZM4.16665 14.1667C4.62688 14.1667 4.99998 14.5398 4.99998 15V16.6667H15V15C15 14.5398 15.3731 14.1667 15.8333 14.1667C16.2936 14.1667 16.6666 14.5398 16.6666 15V16.6667C16.6666 17.5871 15.9205 18.3333 15 18.3333H4.99998C4.07951 18.3333 3.33331 17.5871 3.33331 16.6667V15C3.33331 14.5398 3.70641 14.1667 4.16665 14.1667Z" fill="white"/>
</svg>
