<svg width="20" height="20" viewBox="0 0 20 20" fill="none" xmlns="http://www.w3.org/2000/svg">
<path d="M11.6667 4.16667C11.2064 4.16667 10.8333 3.79357 10.8333 3.33333C10.8333 2.8731 11.2064 2.5 11.6667 2.5H16.6667C16.8877 2.5 17.0996 2.5878 17.2559 2.74408C17.4122 2.90036 17.5 3.11232 17.5 3.33333L17.5 8.33333C17.5 8.79357 17.1269 9.16667 16.6667 9.16667C16.2064 9.16667 15.8333 8.79357 15.8333 8.33333L15.8333 5.34518L8.08926 13.0893C7.76382 13.4147 7.23618 13.4147 6.91074 13.0893C6.58531 12.7638 6.58531 12.2362 6.91074 11.9107L14.6548 4.16667H11.6667ZM2.5 5.83333C2.5 4.91286 3.24619 4.16667 4.16667 4.16667H8.33333C8.79357 4.16667 9.16667 4.53976 9.16667 5C9.16667 5.46024 8.79357 5.83333 8.33333 5.83333H4.16667V15.8333H14.1667V11.6667C14.1667 11.2064 14.5398 10.8333 15 10.8333C15.4602 10.8333 15.8333 11.2064 15.8333 11.6667V15.8333C15.8333 16.7538 15.0871 17.5 14.1667 17.5H4.16667C3.24619 17.5 2.5 16.7538 2.5 15.8333V5.83333Z" fill="white"/>
</svg>
